<?xml version="1.0" encoding="UTF-8" standalone="no"?>
<!-- Generator: Adobe Illustrator 16.0.0, SVG Export Plug-In . SVG Version: 6.00 Build 0)  -->
<!DOCTYPE svg PUBLIC "-//W3C//DTD SVG 1.1//EN" "http://www.w3.org/Graphics/SVG/1.1/DTD/svg11.dtd">
<svg version="1.1" id="Layer_1" xmlns="http://www.w3.org/2000/svg" xmlns:xlink="http://www.w3.org/1999/xlink" x="0px" y="0px"
	 width="74px" height="56px" viewBox="0 0 74 56" enable-background="new 0 0 74 56" xml:space="preserve">
<svg
   xmlns:dc="http://purl.org/dc/elements/1.1/"
   xmlns:cc="http://creativecommons.org/ns#"
   xmlns:rdf="http://www.w3.org/1999/02/22-rdf-syntax-ns#"
   xmlns:svg="http://www.w3.org/2000/svg"
   xmlns="http://www.w3.org/2000/svg"
   xmlns:sodipodi="http://sodipodi.sourceforge.net/DTD/sodipodi-0.dtd"
   xmlns:inkscape="http://www.inkscape.org/namespaces/inkscape"
   version="1.1"
   id="svg2222"
   x="0px"
   y="0px"
   width="74px"
   height="56px"
   viewBox="0 0 74 56"
   enable-background="new 0 0 74 56"
   xml:space="preserve"
   sodipodi:docname="audit-summary-stats.svg"
   inkscape:version="0.92.3 (2405546, 2018-03-11)"><metadata
   id="metadata2228" /><defs
   id="defs2226" /><sodipodi:namedview
   pagecolor="#ffffff"
   bordercolor="#666666"
   borderopacity="1"
   objecttolerance="10"
   gridtolerance="10"
   guidetolerance="10"
   inkscape:pageopacity="0"
   inkscape:pageshadow="2"
   inkscape:window-width="2400"
   inkscape:window-height="1271"
   id="namedview2224"
   showgrid="false"
   inkscape:zoom="1.5595246"
   inkscape:cx="119.91417"
   inkscape:cy="-285.43757"
   inkscape:window-x="-9"
   inkscape:window-y="99"
   inkscape:window-maximized="1"
   inkscape:current-layer="Capa_1" />
<svg
   version="1.1"
   id="Layer_1"
   x="0px"
   y="0px"
   width="74px"
   height="56px"
   viewBox="0 0 74 56"
   enable-background="new 0 0 74 56"
   xml:space="preserve"
   sodipodi:docname="audit-summary-stats.svg"
   inkscape:version="0.92.3 (2405546, 2018-03-11)"><metadata
   id="metadata881" /><defs
   id="defs879" /><sodipodi:namedview
   pagecolor="#ffffff"
   bordercolor="#666666"
   borderopacity="1"
   objecttolerance="10"
   gridtolerance="10"
   guidetolerance="10"
   inkscape:pageopacity="0"
   inkscape:pageshadow="2"
   inkscape:window-width="2400"
   inkscape:window-height="1271"
   id="namedview877"
   showgrid="false"
   inkscape:zoom="1.03"
   inkscape:cx="129.93109"
   inkscape:cy="-216.19468"
   inkscape:window-x="-9"
   inkscape:window-y="99"
   inkscape:window-maximized="1"
   inkscape:current-layer="Capa_1" />
<svg
   version="1.1"
   id="Capa_1"
   x="0px"
   y="0px"
   width="612px"
   height="612px"
   viewBox="0 0 612 612"
   style="enable-background:new 0 0 612 612;"
   xml:space="preserve"
   sodipodi:docname="audit-summary-stats-2.svg"
   inkscape:version="0.92.3 (2405546, 2018-03-11)"><metadata
   id="metadata895"><rdf:RDF><cc:Work
       rdf:about=""><dc:format>image/svg+xml</dc:format><dc:type
         rdf:resource="http://purl.org/dc/dcmitype/StillImage" /><dc:title /></cc:Work></rdf:RDF></metadata><defs
   id="defs893" /><sodipodi:namedview
   pagecolor="#ffffff"
   bordercolor="#666666"
   borderopacity="1"
   objecttolerance="10"
   gridtolerance="10"
   guidetolerance="10"
   inkscape:pageopacity="0"
   inkscape:pageshadow="2"
   inkscape:window-width="1920"
   inkscape:window-height="1001"
   id="namedview891"
   showgrid="false"
   inkscape:zoom="1.3202614"
   inkscape:cx="305.30332"
   inkscape:cy="306"
   inkscape:window-x="-9"
   inkscape:window-y="-9"
   inkscape:window-maximized="1"
   inkscape:current-layer="Capa_1" />
<g
   id="g858">
	<path
   d="M1.659,484.737L1.001,206.595c-0.032-13.686,13.95-22.938,26.534-17.559l253.206,108.241   c6.997,2.991,11.542,9.859,11.56,17.468l0.658,278.142c0.032,13.687-13.95,22.939-26.534,17.56L13.219,502.206   C6.222,499.215,1.676,492.347,1.659,484.737z M581.805,219.687L348.142,320.883l0.608,257.406l233.664-101.196L581.805,219.687    M591.26,186.131c10.043-0.025,19.056,8.054,19.081,19.022l0.658,278.142c0.018,7.609-4.495,14.5-11.478,17.523l-252.69,109.438   c-2.493,1.079-5.047,1.583-7.534,1.59c-10.044,0.023-19.058-8.055-19.083-19.022l-0.658-278.143   c-0.019-7.609,4.495-14.5,11.479-17.523l252.69-109.437C586.218,186.64,588.771,186.137,591.26,186.131L591.26,186.131z    M304.152,29.466L61.767,137.691l242.894,107.075l242.386-108.224L304.152,29.466 M304.083,0c2.632-0.006,5.266,0.533,7.728,1.618   l266.403,117.439c15.112,6.663,15.163,28.088,0.082,34.821L312.451,272.577c-2.456,1.097-5.088,1.648-7.721,1.655   c-2.632,0.006-5.266-0.533-7.728-1.618L30.6,155.175c-15.113-6.662-15.163-28.088-0.083-34.821L296.361,1.655   C298.818,0.558,301.449,0.006,304.083,0L304.083,0z"
   id="path856"
   style="fill:#428cf4;fill-opacity:0.98214287" />
<rect
   style="display:none;opacity:0;fill:#fb8c00;fill-opacity:1;stroke:#008080;stroke-width:1.00157475;stroke-miterlimit:4;stroke-dasharray:none;fill-rule:nonzero"
   id="rect897"
   width="103.0099"
   height="59.836632"
   x="268.12872"
   y="131.03465" /></g>
<g
   id="g860">
</g>
<g
   id="g862">
</g>
<g
   id="g864">
</g>
<g
   id="g866">
</g>
<g
   id="g868">
</g>
<g
   id="g870">
</g>
<g
   id="g872">
</g>
<g
   id="g874">
</g>
<g
   id="g876">
</g>
<g
   id="g878">
</g>
<g
   id="g880">
</g>
<g
   id="g882">
</g>
<g
   id="g884">
</g>
<g
   id="g886">
</g>
<g
   id="g888">
</g>
<rect
   style="opacity:0;fill:#fb8c00;fill-opacity:1;fill-rule:nonzero;stroke:#008080;stroke-width:1.00157475;stroke-miterlimit:4;stroke-dasharray:none"
   id="rect1521"
   width="149.97029"
   height="94.678215"
   x="308.27228"
   y="162.84653" /><rect
   style="opacity:0;fill:#fb8c00;fill-opacity:1;fill-rule:nonzero;stroke:#008080;stroke-width:1.00157475;stroke-miterlimit:4;stroke-dasharray:none"
   id="rect1523"
   width="30.670561"
   height="1.7948045"
   x="304.86905"
   y="414.78937" /><rect
   style="opacity:0;fill:#fb8c00;fill-opacity:1;fill-rule:nonzero;stroke:#008080;stroke-width:11.87527561;stroke-linecap:round;stroke-linejoin:round;stroke-miterlimit:10;stroke-dasharray:none"
   id="rect1540"
   width="180.26733"
   height="78.014854"
   x="196.93069"
   y="118.15842"
   ry="0" /><path
   sodipodi:type="star"
   style="opacity:1;fill:#fb8c00;fill-opacity:1;fill-rule:nonzero;stroke:#fb7a00;stroke-width:11.87458229;stroke-linecap:round;stroke-linejoin:round;stroke-miterlimit:10;stroke-dasharray:none;stroke-opacity:1"
   id="path1571"
   sodipodi:sides="4"
   sodipodi:cx="305.24258"
   sodipodi:cy="147.69801"
   sodipodi:r1="136.79243"
   sodipodi:r2="96.726852"
   sodipodi:arg1="1.7040797"
   sodipodi:arg2="2.4894778"
   inkscape:flatsided="true"
   inkscape:rounded="0"
   inkscape:randomized="0"
   d="M 287.06436,283.27722 169.66337,129.51979 323.42081,12.118803 440.82179,165.87624 Z"
   transform="matrix(1.723989,-0.10159671,0.19403955,0.77687454,-254.01852,52.909701)" /><path
   sodipodi:type="star"
   style="opacity:1;fill:#fb8c00;fill-opacity:1;fill-rule:nonzero;stroke:#fb7a00;stroke-width:11.87458229;stroke-linecap:round;stroke-linejoin:round;stroke-miterlimit:10;stroke-dasharray:none;stroke-opacity:1"
   id="path1571-2"
   sodipodi:sides="4"
   sodipodi:cx="305.24258"
   sodipodi:cy="147.69801"
   sodipodi:r1="136.79243"
   sodipodi:r2="96.726852"
   sodipodi:arg1="1.7040797"
   sodipodi:arg2="2.4894778"
   inkscape:flatsided="true"
   inkscape:rounded="0"
   inkscape:randomized="0"
   d="M 287.06436,283.27722 169.66337,129.51979 323.42081,12.118803 440.82179,165.87624 Z"
   transform="matrix(0.72820237,-1.3765316,0.9279037,0.3700354,105.94959,764.51056)" /><path
   inkscape:connector-curvature="0"
   style="fill:#4253f4;stroke-width:9.92958546"
   d="m 255.94922,574.73731 c -0.86863,-29.75962 1.85673,-241.32331 24.47319,-262.80987 -4.70207,7.68007 -0.81918,280.68223 -5.38608,289.34643 C 198.18868,580.43673 58.982753,504.45394 18.281015,494.12613 156.94191,525.41706 163.96201,548.97748 255.94922,574.73731 Z"
   id="path5845"
   sodipodi:nodetypes="ccccc" /><g
   transform="matrix(5.7362799,-2.5539564,2.8428083,6.3850518,348.58048,411.25537)"
   id="g5849"><path
     style="fill:#fc4a20"
     inkscape:connector-curvature="0"
     d="M 42.805493,-8.9993225 C 41.333117,-4.3476443 38.375846,0.63175695 35.851255,5.3309248 33.325656,10.031969 30.490842,16.269519 29.397165,18.669486 l -1.937949,1.445316 C 15.498698,21.542505 4.5842895,20.412049 -6.8583113,20.428429 6.6352834,19.210144 19.184583,21.141468 26.734033,17.138495 31.782967,14.461379 35.168978,1.2738289 42.805493,-8.9993225 Z"
     id="path5847"
     sodipodi:nodetypes="cscccsc" /></g><path
   style="fill:#fc4a20;stroke-width:6.62471533"
   inkscape:connector-curvature="0"
   d="m 506.38005,142.12075 c -27.30184,19.92784 -66.57803,31.43334 -98.98614,48.15858 -34.81613,18.90499 -80.49909,32.09496 -111.62436,44.4395 -65.32449,-38.37403 -146.81529,-55.06607 -203.504138,-99.211 94.035568,34.57459 181.430768,82.07797 213.364358,85.14486 33.56334,3.22341 127.73955,-55.14893 200.75028,-78.53194 z"
   id="path5847-7"
   sodipodi:nodetypes="ccccsc" /></svg>
</svg>
</svg>
