<?xml version="1.0" encoding="UTF-8" standalone="no"?>
<!-- Generator: Adobe Illustrator 16.0.0, SVG Export Plug-In . SVG Version: 6.00 Build 0)  -->

<svg
   xmlns:dc="http://purl.org/dc/elements/1.1/"
   xmlns:cc="http://creativecommons.org/ns#"
   xmlns:rdf="http://www.w3.org/1999/02/22-rdf-syntax-ns#"
   xmlns:svg="http://www.w3.org/2000/svg"
   xmlns="http://www.w3.org/2000/svg"
   xmlns:sodipodi="http://sodipodi.sourceforge.net/DTD/sodipodi-0.dtd"
   xmlns:inkscape="http://www.inkscape.org/namespaces/inkscape"
   version="1.1"
   id="svg871"
   x="0px"
   y="0px"
   width="74px"
   height="56px"
   viewBox="0 0 74 56"
   enable-background="new 0 0 74 56"
   xml:space="preserve"
   sodipodi:docname="audit-fullaudit-ok.svg"
   inkscape:version="0.92.3 (2405546, 2018-03-11)"><metadata
   id="metadata877" /><defs
   id="defs875" /><sodipodi:namedview
   pagecolor="#ffffff"
   bordercolor="#666666"
   borderopacity="1"
   objecttolerance="10"
   gridtolerance="10"
   guidetolerance="10"
   inkscape:pageopacity="0"
   inkscape:pageshadow="2"
   inkscape:window-width="1920"
   inkscape:window-height="1001"
   id="namedview873"
   showgrid="false"
   inkscape:zoom="7.2142855"
   inkscape:cx="28.883867"
   inkscape:cy="26.322086"
   inkscape:window-x="-9"
   inkscape:window-y="-9"
   inkscape:window-maximized="1"
   inkscape:current-layer="g868" />
<svg
   version="1.1"
   id="Layer_1"
   x="0px"
   y="0px"
   width="74px"
   height="56px"
   viewBox="0 0 74 56"
   enable-background="new 0 0 74 56"
   xml:space="preserve"
   sodipodi:docname="audit-fullaudit.svg"
   inkscape:version="0.92.3 (2405546, 2018-03-11)"><metadata
   id="metadata907"><rdf:RDF><cc:Work
       rdf:about=""><dc:format>image/svg+xml</dc:format><dc:type
         rdf:resource="http://purl.org/dc/dcmitype/StillImage" /></cc:Work></rdf:RDF></metadata><defs
   id="defs905" /><sodipodi:namedview
   pagecolor="#ffffff"
   bordercolor="#666666"
   borderopacity="1"
   objecttolerance="10"
   gridtolerance="10"
   guidetolerance="10"
   inkscape:pageopacity="0"
   inkscape:pageshadow="2"
   inkscape:window-width="1920"
   inkscape:window-height="1001"
   id="namedview903"
   showgrid="false"
   inkscape:zoom="5.54"
   inkscape:cx="37"
   inkscape:cy="28"
   inkscape:window-x="2391"
   inkscape:window-y="110"
   inkscape:window-maximized="1"
   inkscape:current-layer="g868" />
<g
   id="g870"
   transform="matrix(0.13645467,0,0,0.11322937,4.152488,0.90252708)">
	<g
   id="g868">
		<path
   d="M 454.62967,401.00549 351.93738,290.80497 c -15.30121,25.53467 -35.55091,47.25227 -59.34777,63.67187 L 395.2902,464.67737 c 16.39534,17.58869 42.97826,17.58869 59.33854,0 16.39627,-17.55998 16.39627,-46.08418 9.3e-4,-63.67188 z"
   id="path862"
   inkscape:connector-curvature="0"
   style="fill:#fb8c00;fill-opacity:1;stroke-width:0.95562941" />
		<path
   d="m 355.0205,177.67035 c 0,-99.467943 -75.15822,-180.118723 -167.8585,-180.118723 -92.698434,0 -167.860353,80.65078 -167.860353,180.118723 0,99.46795 75.161919,180.11477 167.860353,180.11477 92.70028,0 167.8585,-80.64682 167.8585,-180.11477 z M 187.162,312.7542 c -69.42281,0 -125.894113,-60.5903 -125.894113,-135.08286 0,-74.49256 56.471303,-135.087805 125.894113,-135.087805 69.42096,0 125.89687,60.595245 125.89687,135.087805 0,74.49256 -56.47591,135.08286 -125.89687,135.08286 z"
   id="path864"
   inkscape:connector-curvature="0"
   style="fill:#006df0;stroke-width:0.95562941" />
		<path
   d="m 89.244766,177.67035 h 27.973194 c 0,-41.38112 31.3792,-75.04889 69.94312,-75.04889 V 72.602497 c -53.98414,0 -97.916314,47.140413 -97.916314,105.067853 z"
   id="path866"
   inkscape:connector-curvature="0"
   style="fill:#fb8c00;fill-opacity:1;stroke-width:0.95562941" />
	</g>
</g>
<g
   id="g872">
</g>
<g
   id="g874">
</g>
<g
   id="g876">
</g>
<g
   id="g878">
</g>
<g
   id="g880">
</g>
<g
   id="g882">
</g>
<g
   id="g884">
</g>
<g
   id="g886">
</g>
<g
   id="g888">
</g>
<g
   id="g890">
</g>
<g
   id="g892">
</g>
<g
   id="g894">
</g>
<g
   id="g896">
</g>
<g
   id="g898">
</g>
<g
   id="g900">
</g>
</svg>
</svg>