<?xml version="1.0" encoding="UTF-8" standalone="no"?>
<!DOCTYPE svg PUBLIC "-//W3C//DTD SVG 1.1//EN" "http://www.w3.org/Graphics/SVG/1.1/DTD/svg11.dtd">
<svg version="1.1" id="Layer_1" xmlns="http://www.w3.org/2000/svg" xmlns:xlink="http://www.w3.org/1999/xlink" x="0px" y="0px"
	 width="74px" height="56px" viewBox="0 0 74 56" enable-background="new 0 0 74 56" xml:space="preserve">
<svg
   xmlns:dc="http://purl.org/dc/elements/1.1/"
   xmlns:cc="http://creativecommons.org/ns#"
   xmlns:rdf="http://www.w3.org/1999/02/22-rdf-syntax-ns#"
   xmlns:svg="http://www.w3.org/2000/svg"
   xmlns="http://www.w3.org/2000/svg"
   xmlns:sodipodi="http://sodipodi.sourceforge.net/DTD/sodipodi-0.dtd"
   xmlns:inkscape="http://www.inkscape.org/namespaces/inkscape"
   height="464pt"
   viewBox="0 0 464 464"
   width="464pt"
   version="1.1"
   id="svg827"
   sodipodi:docname="audit-planning.svg"
   inkscape:version="0.92.3 (2405546, 2018-03-11)">
  <metadata
     id="metadata833">
    <rdf:RDF>
      <cc:Work
         rdf:about="">
        <dc:format>image/svg+xml</dc:format>
        <dc:type
           rdf:resource="http://purl.org/dc/dcmitype/StillImage" />
        <dc:title></dc:title>
      </cc:Work>
    </rdf:RDF>
  </metadata>
  <defs
     id="defs831" />
  <sodipodi:namedview
     pagecolor="#ffffff"
     bordercolor="#666666"
     borderopacity="1"
     objecttolerance="10"
     gridtolerance="10"
     guidetolerance="10"
     inkscape:pageopacity="0"
     inkscape:pageshadow="2"
     inkscape:window-width="1920"
     inkscape:window-height="1001"
     id="namedview829"
     showgrid="false"
     inkscape:zoom="1.3060345"
     inkscape:cx="309.33333"
     inkscape:cy="309.33333"
     inkscape:window-x="2391"
     inkscape:window-y="110"
     inkscape:window-maximized="1"
     inkscape:current-layer="svg827" />
  <g
     transform="matrix(12.298954,0,0,5.3440592,-455.83688,-40.448708)"
     id="g882">
    <rect
       style="fill:#428cf4;stroke-width:1.1020999"
       x="55.93792"
       y="9.2335711"
       width="17.867662"
       height="41.331173"
       id="rect876" />
    <rect
       style="fill:#428cf4;stroke-width:1.1020999"
       x="38.070259"
       y="50.564743"
       width="17.867662"
       height="41.331173"
       id="rect876-6" />
    <g
       transform="matrix(0.74838435,0,0,0.7394164,-2.1385617,3.8744739)"
       id="g3112">
      <rect
         style="fill:#fb8c00;stroke-width:1.49152505"
         x="53.395237"
         y="7.2695355"
         width="24.207249"
         height="55.875221"
         id="rect3106" />
      <rect
         style="opacity:0;fill:#000000;fill-opacity:1;stroke:#0000ff;stroke-width:0.12455697;stroke-miterlimit:4;stroke-dasharray:none;stroke-opacity:1"
         id="rect3716"
         width="1.4973558"
         height="32.843899"
         x="67.043282"
         y="30.719297" />
      <rect
         style="fill:#fb8c00;stroke-width:1.50872445"
         x="76.718002"
         y="62.496296"
         width="24.768757"
         height="55.875221"
         id="rect3106-8" />
    </g>
  </g>
  <path
     d="m440 0h-416c-13.253906 0-24 10.746094-24 24v416c0 13.253906 10.746094 24 24 24h416c13.253906 0 24-10.746094 24-24v-416c0-13.253906-10.746094-24-24-24zm8 24v200h-74.238281c-3.03125 0-5.800781 1.710938-7.15625 4.421875s-1.0625 5.953125.753906 8.378906c5.742187 7.894531 8.773437 17.4375 8.640625 27.199219 0 22.054688-14.351562 40-32 40s-32-17.945312-32-40c-.136719-9.761719 2.886719-19.300781 8.625-27.199219 1.816406-2.425781 2.109375-5.667969.753906-8.378906-1.355468-2.710937-4.125-4.421875-7.15625-4.421875h-74.222656v-60.617188c7.628906 3.070313 15.777344 4.636719 24 4.617188 30.878906 0 56-21.527344 56-48s-25.121094-48-56-48c-8.222656-.019531-16.371094 1.546875-24 4.617188v-60.617188h200c4.417969 0 8 3.582031 8 8zm-432 0c0-4.417969 3.582031-8 8-8h200v74.238281c0 3.03125 1.710938 5.800781 4.421875 7.15625s5.953125 1.0625 8.378906-.753906c7.898438-5.738281 17.4375-8.765625 27.199219-8.640625 22.054688 0 40 14.351562 40 32s-17.945312 32-40 32c-9.757812.132812-19.300781-2.894531-27.199219-8.625-2.425781-1.816406-5.667969-2.109375-8.378906-.753906-2.710937 1.355468-4.421875 4.125-4.421875 7.15625v74.222656h-60.617188c3.070313-7.628906 4.636719-15.777344 4.617188-24 0-30.871094-21.527344-56-48-56s-48 25.128906-48 56c-.019531 8.222656 1.546875 16.371094 4.617188 24h-60.617188zm0 416v-200h74.238281c3.03125 0 5.800781-1.710938 7.15625-4.421875s1.0625-5.953125-.753906-8.378906c-5.742187-7.894531-8.773437-17.4375-8.640625-27.199219 0-22.054688 14.351562-40 32-40s32 17.945312 32 40c.136719 9.761719-2.886719 19.300781-8.625 27.199219-1.816406 2.425781-2.109375 5.667969-.753906 8.378906 1.355468 2.710937 4.125 4.421875 7.15625 4.421875h74.222656v60.617188c-7.628906-3.070313-15.777344-4.636719-24-4.617188-30.878906 0-56 21.527344-56 48s25.121094 48 56 48c8.222656.019531 16.371094-1.546875 24-4.617188v60.617188h-200c-4.417969 0-8-3.582031-8-8zm432 0c0 4.417969-3.582031 8-8 8h-200v-74.238281c0-3.03125-1.710938-5.800781-4.421875-7.15625s-5.953125-1.0625-8.378906.753906c-7.898438 5.738281-17.4375 8.765625-27.199219 8.640625-22.054688 0-40-14.351562-40-32s17.945312-32 40-32c9.757812-.132812 19.300781 2.894531 27.199219 8.625 2.425781 1.816406 5.667969 2.109375 8.378906.753906 2.710937-1.355468 4.421875-4.125 4.421875-7.15625v-74.222656h60.617188c-3.070313 7.628906-4.636719 15.777344-4.617188 24 0 30.871094 21.527344 56 48 56s48-25.128906 48-56c.019531-8.222656-1.546875-16.371094-4.617188-24h60.617188zm0 0"
     id="path825" />
  <ellipse
     style="fill:#fb8c00;stroke-width:4.91834736"
     cx="263.87131"
     cy="119.73269"
     id="circle3856"
     rx="42.090347"
     ry="32.327969" />
  <ellipse
     style="fill:#fb8c00;stroke-width:4.91834736"
     cx="201.56435"
     cy="343.98016"
     id="circle3856-3"
     rx="42.090347"
     ry="32.327969" />
  <ellipse
     style="fill:#428cf4;stroke-width:5.29966307"
     cx="343.69302"
     cy="261.28711"
     id="circle4631"
     rx="34.050739"
     ry="46.397274" />
  <ellipse
     style="fill:#428cf4;stroke-width:5.29966307"
     cx="120.0198"
     cy="206.1584"
     id="circle4631-2"
     rx="34.050739"
     ry="46.397274" />
</svg>
