<?xml version="1.0" encoding="UTF-8" standalone="no"?>
<!-- Generator: Adobe Illustrator 16.0.0, SVG Export Plug-In . SVG Version: 6.00 Build 0)  -->

<svg
   xmlns:dc="http://purl.org/dc/elements/1.1/"
   xmlns:cc="http://creativecommons.org/ns#"
   xmlns:rdf="http://www.w3.org/1999/02/22-rdf-syntax-ns#"
   xmlns:svg="http://www.w3.org/2000/svg"
   xmlns="http://www.w3.org/2000/svg"
   xmlns:sodipodi="http://sodipodi.sourceforge.net/DTD/sodipodi-0.dtd"
   xmlns:inkscape="http://www.inkscape.org/namespaces/inkscape"
   version="1.1"
   id="Layer_1"
   x="0px"
   y="0px"
   width="74px"
   height="56px"
   viewBox="0 0 74 56"
   enable-background="new 0 0 74 56"
   xml:space="preserve"
   sodipodi:docname="audit-planning.svg"
   inkscape:version="0.92.3 (2405546, 2018-03-11)"><metadata
   id="metadata2713"><rdf:RDF><cc:Work
       rdf:about=""><dc:format>image/svg+xml</dc:format><dc:type
         rdf:resource="http://purl.org/dc/dcmitype/StillImage" /><dc:title></dc:title></cc:Work></rdf:RDF></metadata><defs
   id="defs2711"><pattern
     y="0"
     x="0"
     height="6"
     width="6"
     patternUnits="userSpaceOnUse"
     id="EMFhbasepattern" /></defs><sodipodi:namedview
   pagecolor="#ffffff"
   bordercolor="#666666"
   borderopacity="1"
   objecttolerance="10"
   gridtolerance="10"
   guidetolerance="10"
   inkscape:pageopacity="0"
   inkscape:pageshadow="2"
   inkscape:window-width="1920"
   inkscape:window-height="1001"
   id="namedview2709"
   showgrid="false"
   inkscape:zoom="7.54"
   inkscape:cx="28.223298"
   inkscape:cy="31.35303"
   inkscape:window-x="-9"
   inkscape:window-y="-9"
   inkscape:window-maximized="1"
   inkscape:current-layer="029---Peice-of-the-puzzle" />









<g
   transform="matrix(1.088375,0,0,0.90872422,5.0422464,1.1531756)"
   style="fill:none;fill-rule:evenodd;stroke:none;stroke-width:1"
   id="Page-1"><g
     style="fill-rule:nonzero"
     id="029---Peice-of-the-puzzle"
     transform="translate(0,-1)"><path
       style="fill:#fb8c00;fill-opacity:1;stroke:none"
       inkscape:connector-curvature="0"
       d="M 54.960428,28.170737 36.03,48.98 23.793,42.041 9.9030004,28.151 c -0.1905714,-0.194422 -0.1905714,-0.505578 0,-0.7 L 17.803,19.561 c 1.136154,-1.105239 1.162998,-2.92167 0.06,-4.06 l -0.08,-0.08 c -0.302964,-0.290164 -0.728883,-0.413456 -1.14,-0.33 -2.273894,0.38605 -4.54994,-0.672391 -5.72,-2.66 -1.0574539,-1.836685 -1.0112611,-4.1078312 0.12,-5.9 0.756331,-1.2101596 1.913687,-2.8459616 3.27,-3.2897373 2.009956,-0.6677004 4.224588,0.5799439 5.73,2.0697373 1.265279,1.2773724 1.831981,3.0893283 1.52,4.86 -0.07422,0.394963 0.04047,0.801912 0.31,1.1 l 0.11,0.1 c 0.08277,0.08477 0.173148,0.161761 0.27,0.23 1.155213,0.874578 2.537583,-0.563373 3.546286,-1.6035272 L 32.553,4.811 l 1.39,-1.39 c 0.194422,-0.1905714 0.505578,-0.1905714 0.7,0 l 7.65,7.65 c 1.102998,1.13833 1.076154,2.954761 -0.06,4.06 l -0.11,0.11 c -0.294934,0.283786 -0.705629,0.413284 -1.11,0.35 -1.805958,-0.242392 -3.621628,0.37146 -4.91,1.66 -1.268186,1.224902 -1.900119,2.966514 -1.712492,4.719648 0.187626,1.753134 1.173811,3.32157 2.672492,4.250352 0.371952,0.230129 0.893738,-0.318128 1.311857,-0.189737 1.582371,0.483166 2.686414,0.268546 4.100715,-0.59 2.005184,-1.204711 3.958343,-3.899173 3.667428,-6.220263 -0.06285,-0.418268 -0.29013,0.30777 0,0 l 0.09,-0.09 c 0.0995,-0.09817 0.206486,-0.188444 0.32,-0.27 0.09485,0.07079 2.134745,-1.457809 2.219711,-1.375422 L 56.586,26 c 0.190571,0.194422 -1.435001,1.976315 -1.625572,2.170737 z"
       id="path2048"
       sodipodi:nodetypes="ccccccccccccccccccccccccccscccccccccc" /><path
       style="fill:#dfc49c"
       inkscape:connector-curvature="0"
       d="M 57.68,46.57 38.94,57.98 C 37.84317,58.647384 36.583915,59.000252 35.3,59 H 10 L 9.76,58.95 C 9.9164476,58.65771 9.9988527,58.331523 10,58 V 37 h 2.8 c 0.452361,-0.0031 0.904115,0.03367 1.35,0.11 1.592181,0.232277 3.093701,0.884661 4.35,1.89 0.422346,0.336625 0.874174,0.634496 1.35,0.89 1.335045,0.726206 2.830225,1.107735 4.35,1.11 h 5.23 c 1.758297,-0.0026 3.38812,0.92062 4.29,2.43 l 0.09,0.15 c 0.567705,0.949576 0.667267,2.107449 0.27,3.14 -0.176405,0.481516 -0.45632,0.918457 -0.82,1.28 h 2.35 c 0.431993,2.22e-4 0.861072,-0.07073 1.27,-0.21 l 18.51,-6.17 c 0.02,-0.01 0.05,-0.01 0.07,-0.02 1.103511,-0.328764 2.295187,0.06182 2.99,0.98 v 0.01 c 0.464944,0.617196 0.646551,1.402518 0.499776,2.161175 C 58.803,45.509833 58.341593,46.170752 57.68,46.57 Z"
       id="path2050" /><path
       style="fill:#717171;fill-opacity:1"
       inkscape:connector-curvature="0"
       d="M 57.68,46.57 38.255281,57.855685 C 37.158451,58.523069 33.583915,58.000252 32.3,58 H 7 L 6.76,57.95 C 6.9164476,57.65771 6.9988527,57.331523 7,57 V 36 h 2.8 c 1.519775,0.0023 3.014955,0.383794 4.35,1.11 0.475826,0.255504 0.927654,0.553375 1.35,0.89 1.256299,1.005339 2.757819,1.657723 4.35,1.89 0.445885,0.07633 0.897639,0.113143 1.35,0.11 h 5.23 c 1.082015,-10e-4 2.134996,0.349981 3,1 0.51765,0.389612 1.564878,0.437242 1.899284,0.992158 l 1.67414,0.733789 c 0.852769,1.424959 2.05256,2.89154 0.876576,4.064053 v 0 c 0.431993,2.22e-4 -0.408928,0.13927 0,0 l 0.2,-0.07 c -0.176405,0.481516 -0.45632,0.918457 -0.82,1.28 h 2.35 c 0.431993,2.22e-4 0.861072,-0.07073 1.27,-0.21 l 18.51,-6.17 c 0.02,-0.01 0.05,-0.01 0.07,-0.02 0.460904,0.617788 3.441775,1.985463 3.293178,2.741779 C 58.604582,45.098095 58.340378,46.172514 57.68,46.57 Z"
       id="path2052"
       sodipodi:nodetypes="ccccccccccccccccccccccccccc" /><path
       style="fill:#0377bc"
       inkscape:connector-curvature="0"
       d="M 8,34 H 3 c -1.6548028,0.0049 -2.9950578,1.345197 -3,3 v 21 c 0.0049422,1.654803 1.3451972,2.995058 3,3 h 5 c 1.1036331,-9.75e-4 2.117614,-0.607827 2.64,-1.58 C 10.877973,58.984656 11.001823,58.496137 11,58 V 37 C 10.9951,35.345197 9.6548028,34.004942 8,34 Z"
       id="path2054" /><path
       style="fill:#006df0;fill-opacity:1"
       inkscape:connector-curvature="0"
       d="M 4,34 H 3 c -1.6548028,0.0049 -2.9950578,1.345197 -3,3 v 21 c 0.0049422,1.654803 1.3451972,2.995058 3,3 h 1 c 1.1036331,-9.75e-4 5.2376139,-1.077827 5.76,-2.05 0.2379729,-0.435344 2.76,0.95 0,0 L 10,37 C 9.9950578,35.345197 5.6548028,34.004942 4,34 Z"
       id="path2056"
       sodipodi:nodetypes="cccccccccc" /><path
       style="fill:#000000"
       inkscape:connector-curvature="0"
       d="M 8,61 H 3 C 1.3431457,61 0,59.656854 0,58 V 37 c 0,-1.656854 1.3431457,-3 3,-3 h 5 c 1.6568543,0 3,1.343146 3,3 v 21 c 0,1.656854 -1.3431457,3 -3,3 z M 3,36 c -0.5522847,0 -1,0.447715 -1,1 v 21 c 0,0.552285 0.4477153,1 1,1 h 5 c 0.5522848,0 1,-0.447715 1,-1 V 44.279999 37 C 9,36.447715 8.5522848,36 8,36 Z"
       id="path2058"
       sodipodi:nodetypes="ssssssssssssssscsss" /><path
       style="fill:#000000"
       inkscape:connector-curvature="0"
       d="M 35.3,60 H 10 C 9.4477153,60 9,59.552285 9,59 9,58.447715 9.4477153,58 10,58 h 25.3 c 1.100567,10e-7 2.179932,-0.302706 3.12,-0.875 l 18.745,-11.41 c 0.419108,-0.255149 0.710924,-0.675478 0.803486,-1.157333 C 58.061048,44.075811 57.945741,43.577276 57.651,43.185 57.631,43.157 57.611,43.129 57.594,43.1 57.135306,42.549097 56.383701,42.3393 55.706,42.573 L 37.2,48.744 C 36.688244,48.914266 36.152336,49.000714 35.613,49 h -8.888 c -1.579808,-0.0015 -3.124465,0.466263 -4.438,1.344 l -0.732,0.488 c -0.459501,0.306518 -1.080482,0.182501 -1.387,-0.277 -0.306518,-0.459501 -0.182501,-1.080482 0.277,-1.387 l 0.733,-0.488 c 1.641738,-1.097159 3.572397,-1.681891 5.547,-1.68 h 8.888 c 0.322884,3.8e-5 0.643663,-0.05196 0.95,-0.154 l 18.51,-6.17 c 1.526393,-0.51238 3.209316,0.01164 4.175,1.3 0.02081,0.0273 0.04017,0.05567 0.058,0.085 0.598597,0.829175 0.825373,1.869955 0.626,2.873 -0.200342,1.037116 -0.829346,1.9414 -1.732,2.49 L 39.459,58.833 C 38.206212,59.596714 36.767221,60.00049 35.3,60 Z"
       id="path2060" /><path
       style="fill:#000000"
       inkscape:connector-curvature="0"
       d="M 33.265,49 C 32.855913,49.000491 32.48778,48.751763 32.335583,48.372041 32.183386,47.992319 32.27782,47.558188 32.574,47.276 c 0.837043,-0.851584 0.992098,-2.16153 0.377,-3.185 l -0.09,-0.149 C 32.135573,42.740263 30.835709,42.004091 29.432,42 H 24.2 C 21.901077,41.997 19.671072,41.214732 17.874,39.781 16.432794,38.630518 14.644092,38.002674 12.8,38 H 10 C 9.4477153,38 9,37.552285 9,37 9,36.447715 9.4477153,36 10,36 h 2.8 c 2.298923,0.003 4.528928,0.785268 6.326,2.219 1.441206,1.150482 3.229908,1.778326 5.074,1.781 h 5.231 c 2.105865,0.0065 4.055945,1.110594 5.145,2.913 l 0.09,0.149 c 1.090964,1.818745 0.802216,4.146875 -0.7,5.644 -0.03388,0.03307 -0.06997,0.0638 -0.108,0.092 -0.170486,0.129942 -0.378642,0.200848 -0.593,0.202 z"
       id="path2062" /><path
       style="fill:#000000;stroke:none"
       inkscape:connector-curvature="0"
       d="M 36.03,48.98 C 35.625604,48.979914 35.261066,48.736272 35.106322,48.362655 34.951578,47.989037 35.037092,47.558994 35.323,47.273 L 48.730377,33.859317 53.550354,29.037073 56.586,26 49.293,18.707 c -0.749483,-0.7083 -1.929393,-0.681545 -2.646,0.06 l -0.094,0.094 c -0.06706,0.09257 -0.09243,0.20892 -0.07,0.321 0.33846,2.705594 -0.948126,5.356753 -3.283,6.765 -2.127499,1.309202 -4.80579,1.329618 -6.953,0.053 -1.734308,-1.049417 -2.888533,-2.839222 -3.129,-4.852 -0.244414,-2.108127 0.496897,-4.211185 2.009231,-5.700072 1.512334,-1.488887 3.626718,-2.19725 5.730769,-1.919928 0.09347,0.01482 0.188913,-0.0094 0.264,-0.067 l 0.113,-0.111 c 0.742206,-0.718671 0.766748,-1.901153 0.055,-2.65 L 34,3.414 26.457,10.948 c -0.723487,0.730479 -1.70402,1.148964 -2.732,1.166 h -0.061 c -1.005777,0.0045 -1.971421,-0.394185 -2.681,-1.107 L 20.91,10.942 C 20.39407,10.41786 20.159914,9.6785934 20.28,8.953 20.541698,7.5345501 20.111016,6.076353 19.120656,5.0277009 18.130295,3.9790487 16.699084,3.465765 15.268,3.646 13.749993,3.8293111 12.399,4.696333 11.6,6 c -0.932606,1.4728264 -0.973408,3.3408574 -0.106,4.853 0.96351,1.630742 2.832283,2.499125 4.7,2.184 0.726554,-0.133923 1.472803,0.09443 2,0.612 l 0.079,0.079 c 0.724157,0.723605 1.121484,1.711503 1.1,2.735 -0.01244,1.028431 -0.42745,2.011025 -1.156,2.737 l -7.542,7.53 13.532,13.533 c 0.378972,0.392379 0.373552,1.016085 -0.01218,1.401819 -0.385734,0.385733 -1.00944,0.391153 -1.401819,0.01218 L 8.553,27.437 C 8.365223,27.249432 8.2597133,26.994909 8.2597133,26.7295 c 0,-0.265409 0.1055097,-0.519932 0.2932867,-0.7075 l 8.25,-8.239 c 0.361786,-0.357837 0.568929,-0.843206 0.577,-1.352 0.01079,-0.483689 -0.175881,-0.950912 -0.517,-1.294 l -0.08,-0.08 C 16.70464,15.002582 16.606841,14.98404 16.514,15.006 13.835287,15.461899 11.15325,14.216568 9.773,11.876 8.5216184,9.7161631 8.5705229,7.0406623 9.9,4.928 11.026025,3.1091049 12.921954,1.9049487 15.047,1.659 17.098164,1.4095301 19.146188,2.1469509 20.567507,3.6467389 21.988826,5.1465269 22.615231,7.2311869 22.256,9.266 22.23826,9.34822 22.2537,9.4341178 22.299,9.505 l 0.061,0.053 c 0.334682,0.3811671 0.826662,0.586374 1.333,0.556 0.508622,-0.0099 0.993183,-0.2184044 1.35,-0.581 l 8.25,-8.241 c 0.3905,-0.39038194 1.0235,-0.39038194 1.414,0 l 8,8 c 1.486185,1.531714 1.459402,3.97523 -0.06,5.474 l -0.112,0.111 c -0.512479,0.500845 -1.228595,0.735116 -1.938,0.634 -1.491788,-0.196704 -2.991003,0.304915 -4.064032,1.359777 -1.073029,1.054862 -1.600173,2.545294 -1.428968,4.040223 0.159176,1.409957 0.969237,2.66409 2.189,3.389 1.502262,0.887137 3.372702,0.867493 4.856,-0.051 1.665326,-1.001187 2.585948,-2.888266 2.35,-4.817 -0.103834,-0.725773 0.133497,-1.458805 0.643,-1.986 l 0.095,-0.094 c 1.496277,-1.514343 3.93274,-1.541995 5.463,-0.062 l 8,8 c 0.390382,0.3905 0.390382,1.0235 0,1.414 l -21.97,21.98 c -0.185286,0.186945 -0.436805,0.293302 -0.7,0.296 z"
       id="path2064"
       sodipodi:nodetypes="cccccccccccccscccccccccccscccccccccccccscccccccccscccccccccccsccccccccccc" /></g></g></svg>